# xmcd
#
# Track frame offsets: 
#        182
#        18010
#        39462
#        60147
#        78357
#        97407
#        118115
#        138315
#        164035
#        184755
#        199512
#        221970
#        240182
#        264090
#
# Disc length: 3797 seconds
#
# Revision: 3
# Processed by: cddbd v1.5.2PL0 Copyright (c) Steve Scherf et al.
# Submitted via: ExactAudioCopy v1.0b4
#
DISCID=b70ed30e
DTITLE=Joanna - Alma, Coração E Vida
DYEAR=1995
DGENRE=Blues
TTITLE0=A Vida Virou Paixão
TTITLE1=Que Pena
TTITLE2=Esse Moço
TTITLE3=Você Primeiro
TTITLE4=Alma, Coração E Vida
TTITLE5=Apesar Dos Pesares
TTITLE6=Logo Agora
TTITLE7=Nosso Orgulho
TTITLE8=Não Tem Jeito
TTITLE9=Meu Coração Cigano
TTITLE10=Tuas Digitais
TTITLE11=Eternas Ligações
TTITLE12=Água e Vinho
TTITLE13=Fruto Proibido
EXTD=
EXTT0=
EXTT1=
EXTT2=
EXTT3=
EXTT4=Participa  o especial Trio Irakitan\n
EXTT5=
EXTT6=
EXTT7=Participa  o especial de F bio Junior\n
EXTT8=
EXTT9=
EXTT10=
EXTT11=
EXTT12=
EXTT13=
PLAYORDER=
